# xmcd CD database file
#
# Track frame offsets:
#	150
#	17288
#	35021
#	51539
#	69298
#	82182
#	98160
#	109990
#	125525
#	141951
#	155991
#	171291
#	186902
#	200501
#	218152
#	238148
#	254811
#
# Disc length: 3559 seconds
#
# Revision: 0
# Processed by: cddbd v1.5.2PL0 Copyright (c) Steve Scherf et al.
# Submitted via: ACXtractor (MTCDDB.DLL V2003.07.15)
#
DISCID=090de511
DTITLE=Mixed - LBS Country Collection 2
DYEAR=2006
DGENRE=Country
TTITLE0=I Guess You're in Love/ Steve Spouse
TTITLE1=9-3-7-22-0-4/ Shaza Leigh
TTITLE2=Life on the Dole/ Tom Maxwell
TTITLE3=Old Wallerawang/ Ian Cameron
TTITLE4=Goodbye Lover/ Peter Salata
TTITLE5=Cassie On My Mind/ Darryle Kantawarra
TTITLE6=Why Not Tonight/ Hot Diggety
TTITLE7=Rain/ Rex Dallas
TTITLE8=Slow Dancing/ Shauna Harttig
TTITLE9=The Outback Rap/ The Outback Legents
TTITLE10=Virgo Seven/ Benji Pocock
TTITLE11=The Old Macquarie River/ Tom Maxwell
TTITLE12=You've Been On My Mind/ Brender-Lee Heathcote
TTITLE13=Field Turn Dry/ Darren Smith
TTITLE14=Our Sunshine/ Paul Kelly and Uncle Bill
TTITLE15=Keep on Rockin'/ Beccy Cole
TTITLE16=Piliga Princess/ Tom Maxwell
EXTD=ID3G:   2 YEAR: 2006
EXTT0=
EXTT1=
EXTT2=
EXTT3=
EXTT4=
EXTT5=
EXTT6=
EXTT7=
EXTT8=
EXTT9=
EXTT10=
EXTT11=
EXTT12=
EXTT13=
EXTT14=
EXTT15=
EXTT16=
PLAYORDER=
